<?xml version="1.0" standalone="no"?>
<!DOCTYPE svg PUBLIC "-//W3C//DTD SVG 20010904//EN"
 "http://www.w3.org/TR/2001/REC-SVG-20010904/DTD/svg10.dtd">
<svg version="1.0" xmlns="http://www.w3.org/2000/svg"
 width="455.000000pt" height="539.000000pt" viewBox="0 0 455.000000 539.000000"
 preserveAspectRatio="xMidYMid meet">

<g transform="translate(0.000000,539.000000) scale(0.100000,-0.100000)"
fill="#000000" stroke="none">
<path d="M2257 4726 c-136 -56 -189 -118 -195 -227 -6 -98 2 -127 59 -214 76
-114 79 -192 11 -267 l-37 -41 30 7 c55 13 112 54 130 92 22 47 16 96 -25 192
-26 62 -30 83 -28 140 3 65 4 66 16 37 28 -64 55 -111 97 -164 104 -133 112
-235 26 -334 l-32 -36 38 11 c118 32 173 93 173 191 0 75 -33 135 -134 245
-47 50 -92 104 -100 120 -38 74 -28 168 25 235 35 43 26 46 -54 13z"/>
<path d="M1604 4052 c-19 -12 -32 -45 -58 -148 -41 -161 -68 -330 -75 -469
l-6 -130 -193 -7 c-107 -3 -196 -8 -198 -11 -3 -2 96 -7 218 -10 199 -6 334
-19 422 -42 28 -8 29 -7 22 20 -4 15 -4 47 0 72 l7 45 35 -7 c64 -12 160 -62
212 -111 46 -43 90 -108 90 -132 0 -5 -24 -22 -52 -38 -99 -54 -203 -34 -257
49 -29 44 -22 45 -211 -15 -115 -37 -335 -126 -328 -134 2 -1 57 17 123 41 66
24 126 44 133 45 11 0 58 -89 50 -95 -2 -1 -31 -17 -65 -34 -203 -107 -316
-356 -282 -623 12 -98 38 -165 94 -243 62 -88 67 -91 94 -54 33 44 79 69 129
69 41 0 114 -29 127 -50 8 -14 2 -13 -31 5 -69 36 -154 6 -192 -66 -37 -72
-17 -148 51 -189 31 -19 56 -20 755 -20 l724 0 29 31 c64 69 17 179 -77 179
-24 0 -23 2 25 65 47 60 111 179 111 204 0 17 10 13 48 -20 52 -46 98 -62 173
-62 120 0 222 77 255 191 66 227 -173 420 -384 310 l-51 -26 -6 29 -7 29 -161
0 -162 1 60 32 c113 61 237 200 267 299 11 37 13 38 42 32 17 -3 78 -24 136
-45 57 -21 106 -37 108 -35 7 7 -195 89 -320 131 -167 55 -208 63 -208 42 0
-28 -64 -84 -109 -97 -53 -14 -98 -7 -163 26 -59 30 -61 45 -9 114 61 81 167
147 264 165 l37 7 0 -72 c0 -63 2 -71 18 -66 67 21 238 38 427 44 238 7 218
19 -36 21 l-136 1 -6 133 c-9 205 -84 568 -125 610 -14 14 -27 18 -44 13 -12
-3 -88 -62 -168 -131 -99 -85 -150 -123 -160 -118 -8 3 -55 17 -105 30 -150
40 -365 31 -511 -20 l-41 -15 -152 129 c-144 122 -171 139 -197 121z m1326
-330 c12 -62 21 -115 19 -117 -2 -1 -33 15 -69 36 -35 22 -82 45 -103 51 -20
6 -36 14 -35 18 7 16 154 137 159 132 4 -4 17 -58 29 -120z m-1167 57 c40 -34
74 -63 75 -65 2 -1 -29 -18 -70 -37 -40 -20 -88 -46 -107 -58 l-34 -23 7 45
c14 95 40 199 48 199 5 0 41 -28 81 -61z m610 -708 c6 -6 -3 -24 -27 -52 -44
-52 -45 -76 -6 -114 17 -16 29 -33 27 -39 -2 -5 -36 -10 -76 -10 -86 -1 -98
11 -52 50 40 34 39 56 -6 110 -36 45 -36 57 2 67 29 8 126 0 138 -12z m-580
-369 c-23 -2 -64 -2 -90 0 l-48 3 44 26 44 26 46 -26 46 -26 -42 -3z m1181
-207 c-2 -189 -60 -322 -203 -466 -72 -72 -102 -94 -181 -133 -124 -61 -213
-79 -350 -73 -380 17 -670 321 -670 702 l0 85 703 -2 702 -3 -1 -110z m381 81
c102 -78 95 -222 -13 -297 -51 -35 -134 -33 -189 3 -46 30 -83 96 -83 146 0
67 47 141 105 168 49 23 136 13 180 -20z"/>
<path d="M1844 3246 c-9 -23 15 -95 36 -106 27 -14 73 -12 95 4 18 13 18 16 5
41 -15 28 -86 75 -114 75 -9 0 -19 -6 -22 -14z"/>
<path d="M2652 3234 c-23 -14 -49 -38 -57 -53 -13 -27 -13 -29 11 -40 69 -31
124 2 124 76 0 52 -14 55 -78 17z"/>
<path d="M1474 3210 c3 -16 8 -43 11 -58 l6 -28 124 35 c68 19 122 37 120 39
-5 5 -215 41 -243 42 -21 0 -23 -4 -18 -30z"/>
<path d="M2952 3220 c-57 -10 -105 -20 -107 -22 -2 -2 52 -20 120 -39 l125
-36 5 36 c4 20 8 46 11 59 6 27 -9 28 -154 2z"/>
<path d="M964 1696 c-12 -32 7 -36 190 -36 171 0 184 -1 201 -20 33 -37 120
-88 176 -104 50 -15 136 -16 765 -14 l709 3 55 25 c30 13 78 44 107 67 l52 43
183 2 c175 3 183 4 183 23 0 20 -8 20 -1308 23 -1137 2 -1308 0 -1313 -12z"/>
<path d="M830 958 c-97 -289 -97 -292 -79 -286 8 2 32 60 54 127 31 93 43 120
51 110 6 -8 37 -62 70 -121 32 -59 62 -108 65 -108 3 0 34 61 69 135 35 74 65
133 68 130 3 -2 23 -62 46 -132 l42 -128 96 -3 95 -3 -89 258 c-48 141 -90
259 -93 261 -2 2 -37 -62 -78 -143 l-74 -148 -35 64 c-20 35 -54 101 -77 147
-23 45 -43 82 -45 82 -3 0 -41 -109 -86 -242z"/>
<path d="M2920 1181 c-50 -16 -87 -40 -122 -79 -94 -104 -80 -281 29 -371 117
-97 308 -66 388 63 27 45 30 57 30 135 0 64 -5 95 -19 121 -46 87 -116 131
-216 136 -36 2 -76 0 -90 -5z m154 -33 c51 -16 119 -82 136 -132 7 -22 10 -68
8 -106 -3 -57 -9 -77 -33 -112 -37 -54 -120 -98 -182 -98 l-43 0 0 230 0 230
36 0 c20 0 55 -6 78 -12z"/>
<path d="M2480 930 l0 -250 75 0 75 0 0 250 0 250 -75 0 -75 0 0 -250z"/>
<path d="M1585 1054 c-77 -28 -124 -99 -125 -187 0 -138 138 -228 282 -185 45
13 88 49 88 74 0 15 -2 15 -22 0 -65 -47 -85 -56 -130 -56 l-48 0 0 80 0 80
115 0 115 0 0 34 c0 130 -138 210 -275 160z m143 -91 l3 -73 -51 0 -50 0 0 76
0 75 48 -3 47 -3 3 -72z"/>
<path d="M2047 1055 c-44 -15 -68 -37 -54 -52 3 -3 26 4 51 16 33 16 59 21 98
19 l53 -3 3 -49 c3 -44 1 -48 -15 -41 -72 29 -166 11 -212 -40 -26 -30 -31
-44 -31 -86 0 -65 23 -104 75 -129 49 -24 102 -26 150 -6 19 8 35 11 35 5 0
-5 34 -9 75 -9 l75 0 0 140 c0 163 -8 188 -72 221 -54 28 -166 34 -231 14z
m127 -135 c25 -9 26 -12 26 -99 0 -90 0 -91 -30 -106 -16 -8 -38 -15 -50 -15
-19 0 -20 6 -20 115 l0 115 24 0 c14 0 36 -4 50 -10z"/>
<path d="M3578 1050 c-20 -11 -40 -24 -43 -30 -11 -18 -25 -10 -25 15 0 24 -2
25 -75 25 l-75 0 0 -190 0 -190 75 0 75 0 0 141 0 142 36 34 c23 21 44 33 58
31 20 -3 21 -8 24 -175 l2 -173 75 0 75 0 0 145 c0 165 -10 204 -59 229 -40
21 -98 19 -143 -4z"/>
</g>
</svg>
